<?xml version="1.0" encoding="UTF-8"?>
<svg version="1.1" xmlns="http://www.w3.org/2000/svg" width="192" height="192">
<path d="M0 0 C63.36 0 126.72 0 192 0 C192 63.36 192 126.72 192 192 C128.64 192 65.28 192 0 192 C0 128.64 0 65.28 0 0 Z " fill="#121212" transform="translate(0,0)"/>
<path d="M0 0 C36.07692308 0 36.07692308 0 44 6.4375 C47.80811902 11.3166525 48.44226104 15.40329548 48.32421875 21.49609375 C47.6432164 26.75540102 44.76254795 30.38838521 41 34 C41.54269531 34.36351562 42.08539063 34.72703125 42.64453125 35.1015625 C47.10703038 38.2373727 50.39684239 40.58934307 52 46 C52.6288795 52.52237881 52.9168702 58.46235593 49 64 C46.5625 66.6875 46.5625 66.6875 44 69 C43.401875 69.556875 42.80375 70.11375 42.1875 70.6875 C30.81799212 77.50920473 9.24972031 74 0 74 C0 49.58 0 25.16 0 0 Z " fill="#FAFAFA" transform="translate(68,59)"/>
<path d="M0 0 C0.70753418 0.00684814 1.41506836 0.01369629 2.14404297 0.02075195 C11.13851593 0.29458596 17.80367988 3.27124936 24.3125 9.4375 C22.86996343 12.80341866 20.97985273 14.94797079 18.3125 17.4375 C15.61250274 16.43464388 13.21471511 15.37787507 10.75 13.875 C6.33810325 11.27311218 2.42376676 10.99687355 -2.6875 11.4375 C-6.15005794 12.82904396 -6.15005794 12.82904396 -8.6875 15.4375 C-10.0184316 18.83719811 -10.0184316 18.83719811 -9.6875 22.4375 C-6.91996103 27.84678072 -2.04223114 29.31971244 3.3125 31.4375 C12.93523384 35.44969072 21.93182223 39.32682177 26.3125 49.4375 C27.40042373 55.96504237 26.17744966 61.41734134 23.0078125 67.16796875 C19.34212526 72.07525973 14.26694293 75.16621852 8.3125 76.4375 C-4.26126895 77.30210101 -13.20109054 76.77936246 -23.3125 68.625 C-24.09625 67.903125 -24.88 67.18125 -25.6875 66.4375 C-25.11397107 62.56617972 -23.20045648 60.35577204 -20.6875 57.4375 C-16.97667643 59.25487373 -13.39988056 61.27548946 -9.80859375 63.31640625 C-4.64003256 66.04822404 0.59457109 66.0492613 6.3125 65.4375 C9.46750967 64.14986549 11.75205693 62.55838614 13.3125 59.4375 C13.77769075 55.32831503 13.96039718 53.25346556 11.33984375 49.953125 C7.63109557 46.8712749 3.93761333 45.28908091 -0.5 43.5 C-17.98775341 36.07024205 -17.98775341 36.07024205 -21.6875 27.4375 C-22.3991949 21.21016962 -22.67563583 15.56016215 -20 9.8125 C-17.67093135 7.42048355 -15.41403671 5.36602596 -12.6875 3.4375 C-11.96820313 2.91414063 -11.24890625 2.39078125 -10.5078125 1.8515625 C-6.97157137 0.0785441 -3.87118785 -0.05718488 0 0 Z " fill="#F8F8F8" transform="translate(151.6875,57.5625)"/>
<path d="M0 0 C14.52 0 29.04 0 44 0 C44 3.3 44 6.6 44 10 C33.44 10 22.88 10 12 10 C12 17.26 12 24.52 12 32 C20.91 32 29.82 32 39 32 C39 35.3 39 38.6 39 42 C30.09 42 21.18 42 12 42 C12 52.89 12 63.78 12 75 C8.04 75 4.08 75 0 75 C0 50.25 0 25.5 0 0 Z " fill="#F7F7F7" transform="translate(14,59)"/>
<path d="M0 0 C21.23416428 -0.35390274 21.23416428 -0.35390274 26.9375 4.5 C29.1833131 7.2221977 29.91749569 8.27396206 30.3125 11.75 C29.91993628 15.83266269 28.53100884 17.81816032 26 21 C20.16230705 24.8917953 14.34370339 25.28502422 7.5625 25.125 C5.066875 25.08375 2.57125 25.0425 0 25 C0 16.75 0 8.5 0 0 Z " fill="#1B1B1B" transform="translate(79,99)"/>
<path d="M0 0 C16.26101142 -0.43556281 16.26101142 -0.43556281 23 3 C25.48076864 5.48076864 25.35091557 6.44218209 25.4375 9.875 C25.36596444 13.68839579 25.34717545 14.60460573 22.75 17.5625 C17.78650779 20.15705275 13.26625771 20.12536175 7.75 20.0625 C5.1925 20.041875 2.635 20.02125 0 20 C0 13.4 0 6.8 0 0 Z " fill="#171717" transform="translate(79,69)"/>
<path d="M0 0 C4.29 0 8.58 0 13 0 C11.35 1.32 9.7 2.64 8 4 C4.96697692 6.88859341 2.52665675 9.63112433 0 13 C0 8.71 0 4.42 0 0 Z " fill="#000000" transform="translate(0,0)"/>
<path d="M0 0 C1.32 1.65 2.64 3.3 4 5 C5.64646685 6.68662458 7.31183067 8.35511706 9 10 C9.99 10.99 10.98 11.98 12 13 C8.04 13 4.08 13 0 13 C0 8.71 0 4.42 0 0 Z " fill="#000000" transform="translate(0,179)"/>
<path d="M0 0 C0.33 0 0.66 0 1 0 C1 4.29 1 8.58 1 13 C-2.96 13 -6.92 13 -11 13 C-8 10 -8 10 -5.5 8.1875 C-2.67459299 5.71526887 -1.4765315 3.4193361 0 0 Z " fill="#000000" transform="translate(191,179)"/>
<path d="M0 0 C4.29 0 8.58 0 13 0 C13 4.29 13 8.58 13 13 C11.37240592 10.82987456 9.7539636 8.65215544 8.1875 6.4375 C5.70966008 3.67647838 3.38115243 2.46004309 0 1 C0 0.67 0 0.34 0 0 Z " fill="#000000" transform="translate(179,0)"/>
</svg>
